<?xml version="1.0" encoding="UTF-8"?>
<svg id="Capa_2" xmlns="http://www.w3.org/2000/svg" viewBox="0 0 85.38 75.96">
  <defs>
    <style>
      .cls-1 {
        fill: #4CAF50;
      }

      .cls-2 {
        fill: #4CAF50;
      }
    </style>
  </defs>
  <g id="Capa_1-2" data-name="Capa_1">
    <path class="cls-2" d="M59.28,11.92c6.49,0,12.98-.04,19.47.01,6.25.05,7.49,1.57,6.12,7.45-1.66,7.11-3.29,14.23-5.09,21.31-2.15,8.49-7.02,12.28-15.62,12.32-9.82.04-19.65-.3-29.45.1-10.13.41-14.97-5.45-16.78-13.56-1.95-8.75-4.18-17.44-5.84-26.25-.66-3.49-1.78-5.03-5.44-4.49C3.24,9.32-.13,8.82,0,4.38.12.4,3.38.03,6.57,0c11.81-.06,11.76-.06,14.21,11.37,1.94,9.09,4.11,18.13,6.02,27.23.89,4.25,3.13,6.24,7.59,6.17,9.82-.15,19.64-.13,29.45,0,4.17.06,6.51-1.61,7.38-5.74,1.03-4.87,2.1-9.76,3.62-14.49,1.22-3.79-.39-4.12-3.47-4.06-9.32.18-18.63.18-27.95.22-2.16.01-4.33.03-6.48-.13-2.88-.22-4.61-1.56-4.42-4.78.19-3.15,2.3-3.82,4.79-3.84,7.32-.07,14.64-.03,21.97-.03v-.02Z"/>
    <path class="cls-1" d="M62.23,59.09c4.5-.07,8.48,4.01,8.48,8.69,0,4.44-3.7,8.09-8.28,8.18-4.55.09-8.4-3.5-8.5-7.93-.1-4.62,3.84-8.87,8.29-8.94Z"/>
    <path class="cls-2" d="M32.24,59.88c4.1.13,7.62,4.07,7.53,8.42-.09,4.53-3.86,7.85-8.68,7.63-4.47-.2-7.67-3.73-7.48-8.23.2-4.55,3.96-7.97,8.62-7.82Z"/>
  </g>
</svg>