<?xml version="1.0" encoding="UTF-8"?>
<svg id="Capa_1" xmlns="http://www.w3.org/2000/svg" xmlns:xlink="http://www.w3.org/1999/xlink" viewBox="0 0 400 250">
  <defs>
    <style>
      .cls-1 {
        letter-spacing: 0em;
      }

      .cls-2 {
        font-family: MyanmarText, 'Myanmar Text';
        font-size: 16px;
      }

      .cls-2, .cls-3, .cls-4, .cls-5, .cls-6, .cls-7 {
        fill: #1d1d1b;
      }

      .cls-8 {
        letter-spacing: .01em;
      }

      .cls-9 {
        letter-spacing: 0em;
      }

      .cls-10 {
        letter-spacing: 0em;
      }

      .cls-11 {
        letter-spacing: -.01em;
      }

      .cls-3 {
        font-size: 16.16px;
      }

      .cls-3, .cls-12, .cls-5 {
        font-family: MyriadPro-Regular, 'Myriad Pro';
      }

      .cls-4 {
        font-size: 78.93px;
        letter-spacing: -.07em;
      }

      .cls-4, .cls-6 {
        font-family: MyanmarText-Bold, 'Myanmar Text';
        font-weight: 700;
      }

      .cls-12 {
        fill: #fff;
      }

      .cls-12, .cls-5 {
        font-size: 19.01px;
      }

      .cls-13 {
        letter-spacing: 0em;
      }

      .cls-14 {
        fill: #603813;
      }

      .cls-6 {
        font-size: 40px;
        letter-spacing: .03em;
      }

      .cls-15 {
        letter-spacing: 0em;
      }

      .cls-16 {
        letter-spacing: 0em;
      }

      .cls-17 {
        letter-spacing: 0em;
      }

      .cls-18 {
        fill: #ffec00;
      }

      .cls-19 {
        clip-path: url(#clippath);
      }
    </style>
    <clipPath id="clippath">
      <path class="cls-14" d="M400,12.14v225.72c0,6.7-5.43,12.14-12.14,12.14h-176.44L153,0h234.86c6.7,0,12.14,5.43,12.14,12.14Z"/>
    </clipPath>
  </defs>
  <g>
    <path class="cls-14" d="M400,12.14v225.72c0,6.7-5.43,12.14-12.14,12.14h-176.44L153,0h234.86c6.7,0,12.14,5.43,12.14,12.14Z"/>
    <g class="cls-19">
      <image width="275" height="183" transform="translate(115) scale(1.35)" xlink:href="../../../../../../Users/user/Downloads/images.jpg"/>
    </g>
  </g>
  <g>
    <g>
      <path class="cls-18" d="M143.74,87.09c.1,2.67-.8,4.28-2.56,5.36-1.93,1.18-3.91,1.13-5.83-.05-6.08-3.75-12.19-7.47-18.22-11.31-1.38-.88-2.39-.92-3.79-.02-5.72,3.66-11.55,7.16-17.29,10.79-2.35,1.49-4.65,2.1-7.1.38-2.12-1.49-2.7-3.65-1.92-6.83,1.64-6.66,3.23-13.34,4.96-19.99.4-1.53.04-2.42-1.16-3.41-5.3-4.37-10.49-8.87-15.77-13.27-2.08-1.73-3.31-3.75-2.44-6.48.82-2.58,2.77-3.67,5.45-3.97,6.98-.77,13.98-1.17,20.98-1.5,1.59-.07,2.35-.63,2.92-2.09,2.63-6.64,5.33-13.26,8.09-19.84,1.67-3.99,6.37-4.89,9.2-1.87.7.74,1.07,1.66,1.44,2.57,2.63,6.42,5.28,12.82,7.88,19.25.45,1.12.88,1.86,2.33,1.95,7.21.45,14.41,1.05,21.62,1.59,2.71.2,4.57,1.53,5.33,3.82.74,2.24.03,4.45-2.08,6.24-5.13,4.35-10.21,8.78-15.46,12.98-1.82,1.46-2.24,2.74-1.61,5,1.72,6.2,3.13,12.49,4.65,18.75.2.82.32,1.66.38,1.94Z"/>
      <path class="cls-18" d="M89.28,87.34c.69-2.87,1.45-6.03,2.22-9.19,1.1-4.54,2.13-9.1,3.36-13.6.42-1.55.1-2.47-1.1-3.47-5.67-4.71-11.28-9.49-16.89-14.26-.53-.45-1.09-.94-1.44-1.53-1.17-1.96.11-4.1,2.6-4.29,7.49-.59,14.98-1.18,22.47-1.65,1.79-.11,2.73-.74,3.4-2.48,2.65-6.79,5.51-13.5,8.24-20.25.6-1.48,1.33-2.72,3.12-2.71,1.68.02,2.4,1.18,2.97,2.59,2.76,6.82,5.63,13.6,8.32,20.45.65,1.64,1.55,2.26,3.26,2.37,7.42.48,14.84,1.09,22.26,1.61,1.47.1,2.68.51,3.19,1.97.56,1.58-.23,2.7-1.41,3.69-5.75,4.83-11.45,9.72-17.23,14.51-1.13.94-1.48,1.82-1.11,3.28,1.78,7,3.46,14.02,5.18,21.03.08.34.18.68.27,1.03.33,1.39.33,2.68-.99,3.62-1.3.93-2.53.57-3.75-.19-6.38-3.96-12.79-7.86-19.11-11.89-1.43-.91-2.45-.83-3.83.04-6.34,4.01-12.75,7.92-19.12,11.88-1.09.68-2.21,1.02-3.4.36-1-.55-1.54-1.44-1.48-2.94Z"/>
      <image width="512" height="512" transform="translate(96.34 38.35) scale(.07)" xlink:href="../../../../../../Users/user/Downloads/por-ciento.png"/>
    </g>
    <text class="cls-4" transform="translate(20.83 92.36)"><tspan x="0" y="0">5</tspan></text>
    <text class="cls-3" transform="translate(28.38 106.74)"><tspan x="0" y="0">de d</tspan><tspan class="cls-8" x="29.74" y="0">c</tspan><tspan class="cls-16" x="37.19" y="0">t</tspan><tspan class="cls-13" x="42.44" y="0">o</tspan></text>
    <text/>
  </g>
  <text class="cls-5" transform="translate(18.57 205.47)"><tspan class="cls-1" x="0" y="0">M</tspan><tspan x="15.4" y="0">ango de azucar </tspan><tspan x="0" y="22.81">pa</tspan><tspan class="cls-10" x="19.98" y="22.81">r</tspan><tspan x="26.1" y="22.81">a diabeti</tspan><tspan class="cls-15" x="94.7" y="22.81">c</tspan><tspan x="103.1" y="22.81">o</tspan><tspan class="cls-11" x="113.53" y="22.81">s</tspan><tspan x="120.85" y="22.81">...</tspan></text>
  <text class="cls-2" transform="translate(17.57 140.16)"><tspan x="0" y="0">$ 1200</tspan></text>
  <text class="cls-6" transform="translate(18 175.51)"><tspan x="0" y="0">$1000</tspan></text>
  <path class="cls-7" d="M207.23,225h192.77s0,12.84,0,12.84c0,6.72-5.44,12.16-12.16,12.16h-207.84s0,0,0,0c0-13.81,12.19-25,27.23-25Z"/>
  <text class="cls-12" transform="translate(200.69 243.47)"><tspan x="0" y="0">Hasta agotar </tspan><tspan class="cls-9" x="104.48" y="0">e</tspan><tspan x="113.95" y="0">xis</tspan><tspan class="cls-17" x="134.73" y="0">t</tspan><tspan x="140.9" y="0">encias</tspan></text>
</svg>