<?xml version="1.0" encoding="UTF-8"?>
<svg id="Capa_2" xmlns="http://www.w3.org/2000/svg" xmlns:xlink="http://www.w3.org/1999/xlink" viewBox="0 0 327.8 303.22">
  <defs>
    <style>
      .cls-1 {
        fill: #ffed00;
      }

      .cls-2 {
        fill: #be1622;
        font-family: MyanmarText-Bold, 'Myanmar Text';
        font-size: 171px;
        font-weight: 700;
        letter-spacing: -.07em;
      }

      .cls-3 {
        letter-spacing: .01em;
      }

      .cls-4 {
        fill: #1d1d1b;
        font-family: MyriadPro-Regular, 'Myriad Pro';
        font-size: 35px;
      }

      .cls-5 {
        letter-spacing: 0em;
      }
    </style>
  </defs>
  <g id="Capa_1-2" data-name="Capa_1">
    <g>
      <g>
        <path class="cls-1" d="M296.59,164.4c.21,5.79-1.72,9.28-5.56,11.62-4.18,2.55-8.46,2.45-12.62-.12-13.18-8.13-26.4-16.19-39.47-24.5-2.99-1.9-5.17-2-8.21-.05-12.39,7.94-25.02,15.51-37.46,23.38-5.09,3.22-10.08,4.55-15.38.81-4.6-3.24-5.86-7.92-4.16-14.81,3.56-14.44,7-28.9,10.74-43.3.86-3.32.09-5.24-2.51-7.38-11.48-9.46-22.74-19.21-34.17-28.74-4.5-3.75-7.18-8.13-5.29-14.05,1.78-5.59,5.99-7.96,11.8-8.6,15.12-1.66,30.28-2.53,45.46-3.24,3.44-.16,5.09-1.36,6.34-4.52,5.69-14.39,11.54-28.72,17.53-42.99,3.63-8.64,13.8-10.59,19.94-4.06,1.51,1.61,2.31,3.59,3.13,5.58,5.7,13.9,11.44,27.78,17.06,41.71.98,2.43,1.91,4.03,5.05,4.22,15.62.98,31.22,2.28,46.83,3.45,5.87.44,9.91,3.32,11.55,8.27,1.61,4.85.06,9.65-4.51,13.52-11.11,9.43-22.11,19.01-33.49,28.11-3.95,3.16-4.85,5.94-3.49,10.84,3.73,13.44,6.79,27.06,10.08,40.62.43,1.78.7,3.6.82,4.2Z"/>
        <path class="cls-1" d="M178.62,164.94c1.5-6.21,3.14-13.07,4.81-19.92,2.39-9.83,4.62-19.71,7.29-29.47.92-3.36.21-5.35-2.39-7.51-12.28-10.19-24.43-20.55-36.6-30.89-1.15-.98-2.37-2.04-3.13-3.31-2.53-4.25.23-8.87,5.64-9.3,16.22-1.28,32.45-2.55,48.68-3.58,3.88-.25,5.9-1.61,7.37-5.36,5.75-14.71,11.93-29.24,17.86-43.87,1.3-3.2,2.88-5.9,6.75-5.86,3.64.03,5.2,2.55,6.44,5.61,5.98,14.78,12.19,29.47,18.03,44.31,1.4,3.55,3.36,4.9,7.07,5.14,16.09,1.04,32.15,2.37,48.23,3.48,3.19.22,5.8,1.1,6.92,4.28,1.21,3.42-.5,5.85-3.05,7.99-12.45,10.47-24.81,21.05-37.33,31.44-2.46,2.04-3.21,3.95-2.41,7.11,3.86,15.16,7.5,30.37,11.23,45.56.18.75.4,1.48.58,2.23.71,3.01.71,5.81-2.14,7.85-2.82,2.02-5.47,1.25-8.13-.4-13.81-8.57-27.7-17.02-41.41-25.76-3.1-1.97-5.32-1.81-8.3.08-13.74,8.69-27.61,17.16-41.42,25.74-2.36,1.47-4.8,2.22-7.37.79-2.16-1.2-3.33-3.13-3.21-6.36Z"/>
        <image width="512" height="512" transform="translate(193.91 58.8) scale(.15)" xlink:href="../../../../../../Users/user/Downloads/por-ciento.png"/>
      </g>
      <text class="cls-2" transform="translate(0 175.8)"><tspan x="0" y="0">15</tspan></text>
      <text class="cls-4" transform="translate(16.35 206.97)"><tspan x="0" y="0">de d</tspan><tspan class="cls-3" x="64.43" y="0">c</tspan><tspan class="cls-5" x="80.57" y="0">t</tspan><tspan x="91.94" y="0">o</tspan></text>
    </g>
  </g>
</svg>