<?xml version="1.0" encoding="UTF-8"?>
<svg id="Capa_2" xmlns="http://www.w3.org/2000/svg" viewBox="0 0 127.73 123.27">
  <defs>
    <style>
      .cls-1 {
        fill: #006837;
        stroke: #006837;
        stroke-width: .5px;
      }

      .cls-1, .cls-2 {
        stroke-miterlimit: 10;
      }

      .cls-3 {
        fill: #fff;
      }

      .cls-4, .cls-2 {
        fill: #39a900 ;
      }

      .cls-2 {
        stroke: #fff;
      }
    </style>
  </defs>
  <g id="Capa_1-2" data-name="Capa_1">
    <path class="cls-3" d="M29.02,123.1h69.78c2.75,0,4.97-2.38,4.97-5.31l19.58-80.68c0-2.93-2.23-5.31-4.97-5.31H10.37c-2.75,0-4.97,2.38-4.97,5.31l18.65,80.68c0,2.93,2.23,5.31,4.97,5.31Z"/>
    <path class="cls-1" d="M126.89,32.19c4.02,1.15-13.66,45.12-9.74,74.06.24,1.79-.29,3.6-1.46,5h0c-2.93,3.5-7.75,11.26-12.26,10.9l.51-1.34s.45-.92.45-.92l.87-2.75,19-76.75"/>
    <g>
      <path class="cls-4" d="M127.28,31.32l-21,87.76c0,2.22-1.62,4.02-3.62,4.02h-23.42c12.91-32.68,23.78-59.24,36.64-91.78"/>
      <path class="cls-4" d="M0,31.71l21,87.58c0,2.19,1.62,3.97,3.62,3.97h25.42C37.13,91,24.27,63.85,11.41,31.71"/>
      <polygon class="cls-4" points="89.14 31.32 55.85 31.32 38.12 31.32 63.59 93.03 89.14 31.32"/>
    </g>
    <path class="cls-2" d="M30.92,37.68c0-15.44,11.32-30.3,31.62-32.19,20.37-1.89,36.53,14.96,36.53,32.23v.73c.03,1.31,1.05,2.37,2.28,2.47,1.37.12,2.68-.99,2.73-2.47-.03-2.63-.4-16.08-11.57-26.83-7.14-6.87-17-11.13-27.88-11.13C43.14.5,25.59,17.15,25.2,37.75c-.01.65.12,1.3.48,1.85.44.67,1.08,1.15,1.79,1.26,1.5.25,3.3-1.09,3.45-3.19Z"/>
  </g>
</svg>