<?xml version="1.0" encoding="UTF-8"?>
<svg id="Capa_2" xmlns="http://www.w3.org/2000/svg" viewBox="0 0 125.72 122.77">
  <defs>
    <style>
      .cls-1 {
        fill: #006837;
        stroke: #006837;
        stroke-miterlimit: 10;
        stroke-width: .5px;
      }

      .cls-2 {
        fill: #39a900;
      }
    </style>
  </defs>
  <g id="Capa_1-2" data-name="Capa_1">
    <path class="cls-1" d="M124.84,32.3c4.02,1.15-12.56,44.51-8.64,73.45.24,1.79-.29,3.6-1.46,5h0c-2.93,3.5-7.75,11.26-12.26,10.9l.51-1.34s.45-.92.45-.92l.87-2.75,19-76.75"/>
    <g>
      <path class="cls-2" d="M125.51,34.29l-20.17,84.28c0,2.22-1.62,4.02-3.62,4.02h-23.42c12.91-32.68,23.78-59.24,36.64-91.78h7.83c1.82,0,3.17,1.7,2.74,3.48Z"/>
      <path class="cls-2" d="M10.46,31.21c12.86,32.14,25.73,59.29,38.64,91.56h-25.42c-2,0-3.62-1.78-3.62-3.97L.1,35.57c-.53-2.23,1.15-4.36,3.44-4.36h6.92Z"/>
      <polygon class="cls-2" points="88.2 30.82 54.9 30.82 37.17 30.82 62.64 92.53 88.2 30.82"/>
    </g>
    <path class="cls-2" d="M29.98,37.18c0-15.44,11.32-30.3,31.62-32.19,20.37-1.89,36.53,14.96,36.53,32.23v.73c.03,1.31,1.05,2.37,2.28,2.47,1.37.12,2.68-.99,2.73-2.47-.03-2.63-.4-16.08-11.57-26.83C84.43,4.26,74.57,0,63.69,0,42.19,0,24.65,16.65,24.26,37.25c-.01.65.12,1.3.48,1.85.44.67,1.08,1.15,1.79,1.26,1.5.25,3.3-1.09,3.45-3.19Z"/>
  </g>
</svg>
