<?xml version="1.0" encoding="UTF-8"?>
<svg id="Capa_2" xmlns="http://www.w3.org/2000/svg" xmlns:xlink="http://www.w3.org/1999/xlink" viewBox="0 0 3090.76 2827.04">
  <defs>
    <style>
      .cls-1 {
        letter-spacing: .01em;
      }

      .cls-2 {
        fill: #fcfcfc;
      }

      .cls-3 {
        fill: #f2e500;
      }

      .cls-4 {
        letter-spacing: 0em;
      }

      .cls-5 {
        font-size: 35px;
      }

      .cls-5, .cls-6 {
        font-family: MyriadPro-Regular, 'Myriad Pro';
      }

      .cls-5, .cls-7 {
        fill: #1d1d1b;
      }

      .cls-8 {
        fill: #fff;
        opacity: .72;
      }

      .cls-6 {
        font-size: 117px;
      }

      .cls-6, .cls-9 {
        stroke: #fff;
        stroke-miterlimit: 10;
      }

      .cls-9 {
        font-family: PalatinoLinotype-Roman, 'Palatino Linotype';
        font-size: 74px;
      }

      .cls-7 {
        font-family: MyanmarText-Bold, 'Myanmar Text';
        font-size: 137px;
        font-weight: 700;
        letter-spacing: -.07em;
      }

      .cls-10 {
        letter-spacing: 0em;
      }

      .cls-11 {
        fill: #ffec00;
      }

      .cls-12 {
        clip-path: url(#clippath);
      }
    </style>
    <clipPath id="clippath">
      <rect class="cls-2" x="713.6" y="818.75" width="1606.57" height="1516.37" rx="23.81" ry="23.81"/>
    </clipPath>
  </defs>
  <g id="Capa_1-2" data-name="Capa_1">
    <image width="3223" height="2948" transform="scale(.96)" xlink:href="../../../../../../../Users/user/Downloads/1x/Recurso 4-8.png"/>
    <g>
      <rect class="cls-2" x="713.6" y="818.75" width="1606.57" height="1516.37" rx="23.81" ry="23.81"/>
      <g class="cls-12">
        <image width="2048" height="1536" transform="translate(432.29 792.2) scale(1.06)" xlink:href="../../../../../../../Users/user/Downloads/pexels-pixabay-70746.jpg"/>
      </g>
    </g>
    <g>
      <rect class="cls-8" x="752.97" y="1798.36" width="1527.83" height="503.51" rx="29.31" ry="29.31"/>
      <text class="cls-6" transform="translate(1098.61 1942.51)"><tspan x="0" y="0">FRESAS FRES</tspan><tspan class="cls-4" x="624.42" y="0">C</tspan><tspan x="692.75" y="0">AS</tspan></text>
      <text class="cls-6" transform="translate(1351.77 2099.56)"><tspan x="0" y="0">$ 3000</tspan></text>
      <text class="cls-9" transform="translate(900.77 2222.86)"><tspan x="0" y="0">Disponible desde el 23 de septiembre</tspan></text>
    </g>
    <g>
      <path class="cls-3" d="M2465.04,1062c.64,17.91-5.33,28.7-17.19,35.95-12.93,7.9-26.17,7.58-39.05-.36-40.78-25.14-81.69-50.09-122.12-75.79-9.26-5.89-16-6.17-25.41-.15-38.35,24.55-77.4,48-115.89,72.34-15.73,9.95-31.19,14.06-47.6,2.52-14.24-10.02-18.13-24.5-12.88-45.81,11-44.67,21.67-89.43,33.22-133.96,2.66-10.27.26-16.21-7.77-22.83-35.53-29.28-70.34-59.43-105.71-88.91-13.94-11.61-22.21-25.15-16.37-43.46,5.52-17.3,18.54-24.62,36.51-26.59,46.77-5.13,93.69-7.82,140.63-10.03,10.64-.5,15.74-4.21,19.6-13.98,17.61-44.52,35.7-88.87,54.24-133.01,11.22-26.72,42.69-32.75,61.69-12.56,4.68,4.97,7.16,11.1,9.68,17.25,17.63,43,35.39,85.95,52.78,129.05,3.04,7.53,5.9,12.46,15.63,13.07,48.33,3.02,96.6,7.04,144.9,10.67,18.15,1.37,30.66,10.28,35.73,25.6,4.97,15.01.18,29.85-13.95,41.83-34.39,29.17-68.4,58.82-103.6,86.98-12.22,9.78-15,18.37-10.8,33.52,11.54,41.58,20.99,83.73,31.19,125.68,1.34,5.51,2.17,11.14,2.52,13Z"/>
      <path class="cls-11" d="M2100.05,1063.67c4.63-19.22,9.72-40.43,14.87-61.63,7.39-30.43,14.29-60.99,22.54-91.18,2.85-10.41.66-16.54-7.39-23.23-38-31.54-75.58-63.59-113.22-95.56-3.57-3.03-7.32-6.31-9.67-10.26-7.83-13.14.71-27.45,17.44-28.77,50.19-3.97,100.38-7.89,150.62-11.08,12.01-.76,18.26-4.99,22.8-16.59,17.78-45.5,36.92-90.46,55.25-135.74,4.01-9.91,8.9-18.24,20.89-18.13,11.27.1,16.09,7.9,19.92,17.37,18.5,45.73,37.71,91.18,55.79,137.08,4.33,10.99,10.4,15.17,21.87,15.91,49.77,3.21,99.47,7.33,149.23,10.77,9.86.68,17.94,3.4,21.41,13.24,3.73,10.58-1.55,18.09-9.42,24.71-38.52,32.39-76.77,65.12-115.49,97.27-7.6,6.31-9.95,12.23-7.46,21.99,11.96,46.89,23.22,93.96,34.73,140.96.56,2.31,1.24,4.58,1.79,6.89,2.21,9.3,2.19,17.99-6.63,24.3-8.73,6.24-16.93,3.85-25.15-1.25-42.73-26.52-85.71-52.66-128.12-79.7-9.58-6.11-16.45-5.59-25.68.25-42.5,26.89-85.44,53.09-128.16,79.62-7.31,4.54-14.84,6.86-22.8,2.44-6.69-3.72-10.3-9.67-9.94-19.68Z"/>
    </g>
    <text class="cls-7" transform="translate(2152.32 892.39)"><tspan x="0" y="0">16%</tspan></text>
    <text class="cls-5" transform="translate(2216.74 932.49)"><tspan x="0" y="0">de d</tspan><tspan class="cls-1" x="64.43" y="0">c</tspan><tspan class="cls-10" x="80.57" y="0">t</tspan><tspan x="91.94" y="0">o</tspan></text>
  </g>
</svg>